<?xml version="1.0" encoding="utf-8"?>
<svg viewBox="0 0 500 500" xmlns="http://www.w3.org/2000/svg">
  <g transform="matrix(10.807103, 0, 0, 10.807103, -179.946793, -185.697037)" style="">
    <path fill="#d3dce5" d="M52 22.46v21.95l-5.35-7.88a2.457 2.457 0 0 0-4.07 0l-4.51 6.64-6.19-9.1c-.98-1.44-3.09-1.44-4.06 0L20 45.56v-23.1c0-1.35 1.11-2.46 2.46-2.46h27.08c1.35 0 2.46 1.11 2.46 2.46z" opacity="1" data-original="#d3dce5" class=""/>
    <path fill="#50823f" d="M52 44.41v5.13c0 1.35-1.11 2.46-2.46 2.46h-5.47l-6-8.83 4.51-6.64a2.457 2.457 0 0 1 4.07 0z" opacity="1" data-original="#50823f"/>
    <path fill="#78b24c" d="M44.07 52H22.46C21.11 52 20 50.89 20 49.54v-3.98l7.82-11.49c.97-1.44 3.08-1.44 4.06 0l6.19 9.1z" opacity="1" data-original="#78b24c"/>
    <circle cx="51" cy="51" r="9" fill="#e26677" opacity="1" data-original="#e26677"/>
    <path fill="#1a2c3d" d="M 38.46 31.08 C 39.407 31.08 39.999 30.055 39.525 29.235 C 39.305 28.854 38.899 28.62 38.46 28.62 C 37.513 28.62 36.921 29.645 37.395 30.465 C 37.615 30.846 38.021 31.08 38.46 31.08 Z M 61 51 C 61 56.51 56.51 61 51 61 C 46.17 61 42.13 57.56 41.2 53 L 22.46 53 C 20.55 53 19 51.45 19 49.54 L 19 22.46 C 19 20.55 20.55 19 22.46 19 L 35 19 L 37 19 L 49.54 19 C 51.45 19 53 20.55 53 22.46 L 53 41.2 C 57.56 42.13 61 46.17 61 51 Z M 48.67 41.28 L 45.82 37.09 C 45.27 36.27 43.96 36.27 43.4 37.09 L 39.27 43.17 L 41.85 46.96 C 43.1 44.14 45.61 42.02 48.66 41.28 L 48.67 41.28 Z M 21 22.45 L 21 42.3 L 26.99 33.49 C 27.63 32.54 28.69 31.97 29.83 31.97 C 30.97 31.97 32.04 32.54 32.69 33.49 L 38.05 41.37 L 41.73 35.95 C 42.38 35 43.45 34.43 44.59 34.43 C 45.73 34.43 46.81 35 47.45 35.95 L 50.87 40.99 L 50.97 40.99 L 50.97 22.45 C 50.97 21.66 50.3 20.99 49.51 20.99 L 22.43 20.99 C 21.64 20.99 20.97 21.66 20.97 22.45 L 21 22.45 Z M 41 50.99 C 41 50.46 41.05 49.95 41.13 49.44 L 31.05 34.62 C 30.77 34.21 30.33 33.98 29.84 33.98 C 29.33 34 28.92 34.21 28.64 34.62 L 20.99 45.86 L 20.99 49.53 C 20.99 50.32 21.66 50.99 22.45 50.99 L 40.99 50.99 L 41 50.99 Z M 59 50.99 C 59 46.58 55.41 42.99 51 42.99 C 47.14 42.99 43.91 45.74 43.16 49.38 C 43.05 49.9 43 50.43 43 50.98 C 43 55.39 46.59 58.98 51 58.98 C 55.41 58.98 59 55.39 59 50.98 L 59 50.99 Z M 55.24 46.75 C 54.851 46.36 54.219 46.36 53.83 46.75 L 51 49.58 L 48.17 46.75 C 47.627 46.207 46.701 46.456 46.502 47.197 C 46.41 47.541 46.508 47.908 46.76 48.16 L 49.59 50.99 L 46.76 53.82 C 46.218 54.362 46.466 55.288 47.207 55.486 C 47.293 55.509 47.381 55.52 47.47 55.52 C 47.73 55.52 47.98 55.42 48.18 55.23 L 51.01 52.4 L 53.84 55.23 C 54.04 55.43 54.29 55.52 54.55 55.52 C 54.81 55.52 55.06 55.42 55.26 55.23 C 55.65 54.841 55.65 54.209 55.26 53.82 L 52.43 50.99 L 55.26 48.16 C 55.65 47.771 55.65 47.139 55.26 46.75 L 55.24 46.75 Z" opacity="1" data-original="#1a2c3d"/>
  </g>
</svg>