<?xml version="1.0" encoding="UTF-8" standalone="no"?>
<svg
   width="590.81097"
   height="436.52911"
   version="1.1"
   id="svg32"
   sodipodi:docname="error.svg"
   inkscape:version="1.2.2 (b0a8486541, 2022-12-01)"
   viewBox="0 0 590.81097 436.52911"
   xmlns:inkscape="http://www.inkscape.org/namespaces/inkscape"
   xmlns:sodipodi="http://sodipodi.sourceforge.net/DTD/sodipodi-0.dtd"
   xmlns="http://www.w3.org/2000/svg"
   xmlns:svg="http://www.w3.org/2000/svg">
  <defs
     id="defs36" />
  <sodipodi:namedview
     id="namedview34"
     pagecolor="#ffffff"
     bordercolor="#000000"
     borderopacity="0.25"
     inkscape:showpageshadow="2"
     inkscape:pageopacity="0.0"
     inkscape:pagecheckerboard="0"
     inkscape:deskcolor="#d1d1d1"
     showgrid="false"
     inkscape:zoom="1.2989994"
     inkscape:cx="162.0478"
     inkscape:cy="253.27186"
     inkscape:window-width="1920"
     inkscape:window-height="1011"
     inkscape:window-x="1920"
     inkscape:window-y="32"
     inkscape:window-maximized="1"
     inkscape:current-layer="svg32" />
  <path
     d="m 158.9159,271.19137 v -18.45954 c 0,-3.47458 0.12533,-8.15979 0.37999,-14.06231 0.25199,-5.89852 0.45066,-8.99444 0.59732,-9.28377 h -1.19597 c -2.46127,5.57586 -5.2492,10.78906 -8.35979,15.63694 l -17.59156,26.16868 z m 59.8305,32.0352 h -17.48223 v 30.7299 H 158.9159 v -30.7299 H 95.609481 v -31.49121 l 66.019689,-96.53359 h 39.635 v 95.9896 h 17.48223 v 32.0352 m 53.85866,-48.43079 c 0,17.95422 1.1213,30.29658 3.36658,37.02841 2.24261,6.73183 6.00785,10.09841 11.29305,10.09841 5.35587,0 9.13711,-3.47458 11.34638,-10.42507 2.20795,-6.94916 3.31192,-19.18219 3.31192,-36.70175 0,-17.59156 -1.12397,-29.91658 -3.36525,-36.97507 -2.24527,-7.05716 -6.01051,-10.58641 -11.29305,-10.58641 -5.2852,0 -9.05044,3.40392 -11.29305,10.20642 -2.24528,6.80649 -3.36658,19.25818 -3.36658,37.35506 z m 71.99286,0 c 0,28.08863 -4.70654,48.66545 -14.11698,61.73179 -9.41043,13.06767 -23.81673,19.59951 -43.21625,19.59951 -18.96752,0 -33.2645,-6.82116 -42.89226,-20.46882 -9.62776,-13.64366 -14.44097,-33.93249 -14.44097,-60.86248 0,-28.23263 4.70388,-48.93478 14.11565,-62.11311 9.40909,-13.17434 23.81673,-19.76217 43.21758,-19.76217 18.8942,0 33.17251,6.85982 42.83626,20.57815 9.6651,13.71965 14.49697,34.14981 14.49697,61.29713 m 74.9248,16.39559 v -18.45954 c 0,-3.47458 0.12533,-8.15979 0.37999,-14.06231 0.25333,-5.89852 0.45199,-8.99444 0.59732,-9.28377 h -1.19464 c -2.46127,5.57586 -5.2492,10.78906 -8.36112,15.63694 l -17.59023,26.16868 z m 59.8305,32.0352 h -17.48089 v 30.7299 h -42.34961 v -30.7299 H 356.2163 v -31.49121 l 66.02102,-96.53359 h 39.63501 v 95.9896 h 17.48089 v 32.0352"
     style="fill:#4db748;fill-opacity:1;fill-rule:nonzero;stroke:none;stroke-width:0.13333"
     id="path2" />
  <path
     d="m 31.979605,210.42622 h 64.180529 m 15.404946,0 h 13.70099 M 20.356429,192.36268 H 135.25383 m -124.354498,0 H 1.441835 m 18.914594,-17.16091 h 38.146513 m 10.212145,0 h 80.113063 m 336.81825,178.5382 h 68.68095 m 11.17039,0 h 9.93441 m -76.07009,-18.06488 h 90.00708 m -96.86558,0 h -6.85716 m 0,-17.1609 h 41.37496 m 7.40515,0 h 31.07123"
     style="fill:none;stroke:#131112;stroke-width:2.88367;stroke-linecap:round;stroke-linejoin:round;stroke-miterlimit:10;stroke-dasharray:none;stroke-opacity:1"
     id="path4" />
  <path
     d="m 167.13436,270.58605 v -18.46087 c 0,-3.47458 0.12533,-8.15979 0.37999,-14.06231 0.25333,-5.89852 0.45199,-8.99445 0.59732,-9.28377 h -1.19464 c -2.46127,5.57586 -5.2492,10.78906 -8.36112,15.63694 l -17.59156,26.17001 z m 59.83184,32.03387 h -17.48223 v 30.7299 h -42.34961 v -30.7299 h -63.30642 v -31.49121 l 66.02102,-96.53359 h 39.63501 v 95.99093 h 17.48223 z m 53.85865,-48.43079 c 0,17.95422 1.12131,30.29658 3.36658,37.02841 2.24262,6.73183 6.00785,10.09841 11.29306,10.09841 5.35586,0 9.1371,-3.47458 11.34638,-10.42507 2.20794,-6.94916 3.31058,-19.18219 3.31058,-36.70175 0,-17.59156 -1.12264,-29.91659 -3.36525,-36.97508 -2.24394,-7.05715 -6.00918,-10.5864 -11.29171,-10.5864 -5.28521,0 -9.05044,3.40392 -11.29306,10.20641 -2.24527,6.8065 -3.36658,19.25819 -3.36658,37.35507 z m 71.99154,0 c 0,28.08863 -4.70655,48.66545 -14.11565,61.73312 -9.41043,13.06634 -23.81807,19.59818 -43.21625,19.59818 -18.96753,0 -33.26584,-6.82116 -42.89227,-20.46749 -9.62909,-13.64499 -14.4423,-33.93382 -14.4423,-60.86381 0,-28.23263 4.70522,-48.93478 14.11698,-62.11311 9.4091,-13.17434 23.8154,-19.76084 43.21759,-19.76084 18.89286,0 33.17117,6.85849 42.83626,20.57682 9.66509,13.71965 14.49564,34.15114 14.49564,61.29713 z m 74.92612,16.39692 v -18.46087 c 0,-3.47458 0.124,-8.15979 0.37999,-14.06231 0.252,-5.89852 0.45066,-8.99445 0.59732,-9.28377 h -1.19464 c -2.46127,5.57586 -5.25053,10.78906 -8.36112,15.63694 l -17.59156,26.17001 z m 59.83051,32.03387 h -17.48223 v 30.7299 h -42.34828 v -30.7299 H 364.4361 v -31.49121 l 66.02101,-96.53359 h 39.63368 v 95.99093 h 17.48223 z"
     style="fill:none;stroke:#131112;stroke-width:4.35657;stroke-linecap:butt;stroke-linejoin:miter;stroke-miterlimit:10;stroke-dasharray:none;stroke-opacity:1"
     id="path6" />
  <path
     d="m 515.61898,206.51166 v -14.7183 m -10.27441,18.97419 -10.4064,-10.40774 m 6.15184,20.68215 h -14.7183 m 18.97286,10.27308 -10.4064,10.40774 m 20.68081,-6.15185 v 14.7183 m 10.27441,-18.97419 10.40774,10.40774 m -6.15184,-20.68082 h 14.71829 m -18.97419,-10.27441 10.40774,-10.40774 M 53.993588,279.79782 v -10.6384 m -7.426348,13.71566 -7.522745,-7.52381 m 4.446289,14.95029 H 32.852517 m 13.714723,7.42648 -7.522745,7.52248 m 14.949093,-4.44656 v 10.63841 m 7.426481,-13.71433 7.522612,7.52248 m -4.446689,-14.94896 h 10.638801 m -13.714724,-7.42648 7.522612,-7.52381 M 341.88199,60.053988 V 49.414254 m -7.42648,13.715657 -7.52248,-7.522479 m 4.44656,14.94896 h -10.63974 m 13.71566,7.426481 -7.52248,7.522478 m 14.94896,-4.446555 v 10.6384 m 7.42648,-13.714323 7.52248,7.522478 M 352.3844,70.556392 h 10.6384 m -13.71433,-7.426481 7.52248,-7.522479"
     style="fill:none;stroke:#131112;stroke-width:2.88367;stroke-linecap:round;stroke-linejoin:round;stroke-miterlimit:10;stroke-dasharray:none;stroke-opacity:1"
     id="path12" />
  <path
     d="M 135.25383,149.31042 V 103.2729 h 239.31801 v 102.29078"
     style="fill:none;stroke:#131112;stroke-width:2.88367;stroke-linecap:round;stroke-linejoin:round;stroke-miterlimit:10;stroke-dasharray:none;stroke-opacity:1"
     id="path16" />
  <path
     d="m 290.22195,70.556392 v 57.637218 h 158.6987 v 26.22468 m -307.9563,0.60265 c 0,3.15326 -2.55594,5.71053 -5.71052,5.71053 -3.15326,0 -5.71053,-2.55727 -5.71053,-5.71053 0,-3.15459 2.55727,-5.71052 5.71053,-5.71052 3.15458,0 5.71052,2.55593 5.71052,5.71052 z M 295.93247,64.844534 c 0,3.154588 -2.55726,5.711858 -5.71052,5.711858 -3.15459,0 -5.71186,-2.55727 -5.71186,-5.711858 0,-3.153254 2.55727,-5.710523 5.71186,-5.710523 3.15326,0 5.71052,2.557269 5.71052,5.710523 z m 158.6987,95.886936 c 0,3.15458 -2.55727,5.71052 -5.71052,5.71052 -3.15459,0 -5.71186,-2.55594 -5.71186,-5.71052 0,-3.15326 2.55727,-5.71053 5.71186,-5.71053 3.15325,0 5.71052,2.55727 5.71052,5.71053 z m -74.3488,51.49071 c 0,3.15459 -2.55594,5.71052 -5.71053,5.71052 -3.15325,0 -5.71052,-2.55593 -5.71052,-5.71052 0,-3.15326 2.55727,-5.71052 5.71052,-5.71052 3.15459,0 5.71053,2.55726 5.71053,5.71052 z m -282.24495,114.37047 -13.512329,13.513 m 0,-13.513 13.512329,13.513 m 6.75583,-209.72542 -13.511661,13.51166 m 0,-13.51166 13.511661,13.51166 m 438.26371,139.65251 -13.51299,13.51299 m 0,-13.51299 13.51299,13.51299"
     style="fill:none;stroke:#131112;stroke-width:2.88367;stroke-linecap:round;stroke-linejoin:round;stroke-miterlimit:10;stroke-dasharray:none;stroke-opacity:1"
     id="path18" />
  <path
     d="m 159.60255,53.263491 c -4.30923,0 -8.25313,1.550628 -11.31572,4.118563 -3.12792,-9.414431 -11.9917,-16.212928 -22.45677,-16.212928 -11.71704,0 -21.41946,8.518454 -23.31542,19.695508 -1.23597,-0.353325 -2.534602,-0.554653 -3.883901,-0.554653 -7.790072,0 -14.105648,6.315842 -14.105648,14.104981 0,7.166487 5.349467,13.071673 12.269694,13.972984 v 0.13333 h 62.807765 c 9.73576,0 17.62889,-7.893136 17.62889,-17.628893 0,-9.735756 -7.89313,-17.628892 -17.62889,-17.628892 z"
     style="fill:none;stroke:#131112;stroke-width:3.01518;stroke-linecap:round;stroke-linejoin:round;stroke-miterlimit:10;stroke-dasharray:none;stroke-opacity:1"
     id="path20" />
  <path
     d="m 486.44105,142.93591 c 3.13058,0 5.99585,1.12664 8.21979,2.99193 2.27328,-6.83983 8.71178,-11.77838 16.31559,-11.77838 8.51046,0 15.55961,6.18918 16.93825,14.30765 0.89597,-0.256 1.84128,-0.40266 2.81992,-0.40266 5.65986,0 10.24775,4.58789 10.24775,10.24774 0,5.20654 -3.88524,9.49577 -8.91311,10.15042 v 0.0973 h -45.62819 c -7.07316,0 -12.80768,-5.73453 -12.80768,-12.80768 0,-7.07183 5.73452,-12.80635 12.80768,-12.80635 z m 62.91042,242.25528 c -2.62527,0 -5.02921,0.94531 -6.89449,2.50927 -1.90529,-5.73586 -7.30649,-9.87842 -13.68233,-9.87842 -7.13848,0 -13.049,5.19054 -14.20497,11.9997 -0.75199,-0.21466 -1.54397,-0.33733 -2.36661,-0.33733 -4.74522,0 -8.59312,3.84791 -8.59312,8.59446 0,4.36522 3.25858,7.96246 7.47448,8.51178 v 0.0813 h 38.26704 c 5.93185,0 10.73973,-4.80788 10.73973,-10.73973 0,-5.93185 -4.80788,-10.74106 -10.73973,-10.74106 z M 29.983255,362.52642 c 3.130722,0 5.99625,1.12664 8.220728,2.99193 2.272743,-6.83983 8.711649,-11.77838 16.314659,-11.77838 8.511787,0 15.560544,6.18785 16.938109,14.30765 0.897311,-0.25733 1.841554,-0.40266 2.821263,-0.40266 5.659192,0 10.247077,4.58789 10.247077,10.24774 0,5.20654 -3.885769,9.49577 -8.913243,10.15042 v 0.096 H 29.983255 c -7.072756,0 -12.80648,-5.73319 -12.80648,-12.80634 0,-7.07316 5.733724,-12.80635 12.80648,-12.80635 z"
     style="fill:none;stroke:#131112;stroke-width:2.88367;stroke-linecap:round;stroke-linejoin:round;stroke-miterlimit:10;stroke-dasharray:none;stroke-opacity:1"
     id="path22" />
  <path
     d="m 177.23144,44.806369 c 0,0 80.58465,-65.701024 190.07525,-35.4324485 C 482.32115,41.169126 505.34457,123.18041 505.34457,123.18041"
     style="fill:none;stroke:#131112;stroke-width:2.88367;stroke-linecap:round;stroke-linejoin:round;stroke-miterlimit:10;stroke-dasharray:4.35657, 10.1653;stroke-dashoffset:0;stroke-opacity:1"
     id="path24" />
  <path
     d="M 55.555549,235.76426 C 24.31473,240.60947 8.6099225,306.91315 43.750644,333.23382"
     style="fill:none;stroke:#131112;stroke-width:2.6888;stroke-linecap:round;stroke-linejoin:round;stroke-miterlimit:10;stroke-dasharray:4.06215, 9.47835;stroke-dashoffset:0;stroke-opacity:1"
     id="path26" />
  <path
     d="m 448.92065,427.07414 c 0,0 53.51466,23.39408 76.97274,-9.2451"
     style="fill:none;stroke:#131112;stroke-width:2.88367;stroke-linecap:round;stroke-linejoin:round;stroke-miterlimit:10;stroke-dasharray:4.35657, 10.1653;stroke-dashoffset:0;stroke-opacity:1"
     id="path28" />
  <path
     d="m 194.32568,160.73147 v -33.79383 m -8.15713,33.79383 v -16.83958 m 132.36336,24.65805 v -24.71538 m -9.26644,22.60743 v -10.25041 m -8.22112,10.25041 v -17.13157 m -98.87753,11.42105 v -16.89691 m 223.99573,21.60079 v -7.55848 m -8.15713,7.55848 v -18.41287 m 15.99827,18.41287 v -13.15167"
     style="fill:none;stroke:#131112;stroke-width:2.88367;stroke-linecap:round;stroke-linejoin:round;stroke-miterlimit:10;stroke-dasharray:none;stroke-opacity:1"
     id="path30" />
</svg>
