<svg
   id="arrow-circle-down"
   viewBox="0 0 23.154178 23.155915"
   width="512"
   height="512"
   version="1.1"
   xmlns="http://www.w3.org/2000/svg"
   xmlns:svg="http://www.w3.org/2000/svg">
  <defs
     id="defs7" />
  <path
     d="M 21.948213,1.6618176e-5 15.733585,0.04024432 A 1.0795832,1.0795832 0 0 0 14.979559,1.8832093 L 17.189246,4.0928966 11.576153,9.7059892 5.9630614,4.0928966 8.1736841,1.8822738 A 1.0795832,1.0795832 0 0 0 7.4168522,0.04024393 L 1.20503,9.5212818e-4 A 1.1907167,1.1907167 0 0 0 8.6028996e-5,1.2058959 L 0.03937703,7.4195894 A 1.0795832,1.0795832 0 0 0 1.8814076,8.1745502 L 4.0920305,5.9639273 9.7051227,11.577019 4.0920304,17.190112 1.8823431,14.980425 a 1.0795832,1.0795832 0 0 0 -1.8420299,0.75496 L 8.5499e-5,21.950014 A 1.1986548,1.1986548 0 0 0 1.2059648,23.155893 l 6.214629,-0.04022 a 1.0795832,1.0795832 0 0 0 0.7530899,-1.843901 l -2.210623,-2.210622 5.6130923,-5.613093 5.613093,5.613093 -2.210623,2.210622 a 1.0795832,1.0795832 0 0 0 0.756832,1.84203 l 6.213693,0.03929 a 1.1907167,1.1907167 0 0 0 1.204944,-1.204944 l -0.03929,-6.213693 A 1.0795832,1.0795832 0 0 0 21.2709,14.979489 l -2.210622,2.210623 -5.613093,-5.613093 5.613091,-5.6130917 2.210624,2.2106229 a 1.0795832,1.0795832 0 0 0 1.84203,-0.7549608 l 0.04023,-6.214629 A 1.1986548,1.1986548 0 0 0 21.94821,1.6618176e-5 Z"
     id="path2"
     style="stroke-width:1.32302" />
</svg>
