<svg xmlns="http://www.w3.org/2000/svg" version="1.1" xmlns:xlink="http://www.w3.org/1999/xlink" xmlns:svgjs="http://svgjs.com/svgjs" width="512" height="512" x="0" y="0" viewBox="0 0 24 24" style="enable-background:new 0 0 512 512" xml:space="preserve" class=""><g><path fill="#000000" fill-rule="evenodd" d="M11.293 2.293a1 1 0 0 1 1.414 0l2 2a1 1 0 0 1-1.414 1.414L12 4.414l-1.293 1.293a1 1 0 0 1-1.414-1.414zM4 10a1 1 0 0 1 1-1h14a1 1 0 1 1 0 2H5a1 1 0 0 1-1-1zm0 4a1 1 0 0 1 1-1h14a1 1 0 1 1 0 2H5a1 1 0 0 1-1-1zm5.293 4.293a1 1 0 0 1 1.414 0L12 19.586l1.293-1.293a1 1 0 0 1 1.414 1.414l-2 2a1 1 0 0 1-1.414 0l-2-2a1 1 0 0 1 0-1.414z" clip-rule="evenodd" data-original="#000000" class=""></path></g></svg>