<svg xmlns="http://www.w3.org/2000/svg" version="1.1" xmlns:xlink="http://www.w3.org/1999/xlink" xmlns:svgjs="http://svgjs.com/svgjs" width="512" height="512" x="0" y="0" viewBox="0 0 24 24" style="enable-background:new 0 0 512 512" xml:space="preserve" class=""><g><path d="M10 19a2 2 0 1 1-2-2 2 2 0 0 1 2 2zm-2-9a2 2 0 1 0 2 2 2 2 0 0 0-2-2zm0-7a2 2 0 1 0 2 2 2 2 0 0 0-2-2zm8 14a2 2 0 1 0 2 2 2 2 0 0 0-2-2zm0-7a2 2 0 1 0 2 2 2 2 0 0 0-2-2zm0-7a2 2 0 1 0 2 2 2 2 0 0 0-2-2z" fill="#000000" data-original="#000000" class=""></path></g></svg>