<svg xmlns="http://www.w3.org/2000/svg" xmlns:xlink="http://www.w3.org/1999/xlink" width="0" height="0" style="display:none;"><symbol viewBox="0 0 24 24" id="uicon-angle-small-down"><path d="M18.71,8.21a1,1,0,0,0-1.42,0l-4.58,4.58a1,1,0,0,1-1.42,0L6.71,8.21a1,1,0,0,0-1.42,0,1,1,0,0,0,0,1.41l4.59,4.59a3,3,0,0,0,4.24,0l4.59-4.59A1,1,0,0,0,18.71,8.21Z"></path></symbol><symbol viewBox="0 0 24 24" id="uicon-angle-small-left"><path d="M10.6,12.71a1,1,0,0,1,0-1.42l4.59-4.58a1,1,0,0,0,0-1.42,1,1,0,0,0-1.41,0L9.19,9.88a3,3,0,0,0,0,4.24l4.59,4.59a1,1,0,0,0,.7.29,1,1,0,0,0,.71-.29,1,1,0,0,0,0-1.42Z"></path></symbol><symbol viewBox="0 0 24 24" id="uicon-angle-small-right"><path d="M15.4,9.88,10.81,5.29a1,1,0,0,0-1.41,0,1,1,0,0,0,0,1.42L14,11.29a1,1,0,0,1,0,1.42L9.4,17.29a1,1,0,0,0,1.41,1.42l4.59-4.59A3,3,0,0,0,15.4,9.88Z"></path></symbol><symbol viewBox="0 0 23.154178 23.155915" id="uicon-arrows-alt">
  <defs id="defs7"></defs>
  <path d="M 21.948213,1.6618176e-5 15.733585,0.04024432 A 1.0795832,1.0795832 0 0 0 14.979559,1.8832093 L 17.189246,4.0928966 11.576153,9.7059892 5.9630614,4.0928966 8.1736841,1.8822738 A 1.0795832,1.0795832 0 0 0 7.4168522,0.04024393 L 1.20503,9.5212818e-4 A 1.1907167,1.1907167 0 0 0 8.6028996e-5,1.2058959 L 0.03937703,7.4195894 A 1.0795832,1.0795832 0 0 0 1.8814076,8.1745502 L 4.0920305,5.9639273 9.7051227,11.577019 4.0920304,17.190112 1.8823431,14.980425 a 1.0795832,1.0795832 0 0 0 -1.8420299,0.75496 L 8.5499e-5,21.950014 A 1.1986548,1.1986548 0 0 0 1.2059648,23.155893 l 6.214629,-0.04022 a 1.0795832,1.0795832 0 0 0 0.7530899,-1.843901 l -2.210623,-2.210622 5.6130923,-5.613093 5.613093,5.613093 -2.210623,2.210622 a 1.0795832,1.0795832 0 0 0 0.756832,1.84203 l 6.213693,0.03929 a 1.1907167,1.1907167 0 0 0 1.204944,-1.204944 l -0.03929,-6.213693 A 1.0795832,1.0795832 0 0 0 21.2709,14.979489 l -2.210622,2.210623 -5.613093,-5.613093 5.613091,-5.6130917 2.210624,2.2106229 a 1.0795832,1.0795832 0 0 0 1.84203,-0.7549608 l 0.04023,-6.214629 A 1.1986548,1.1986548 0 0 0 21.94821,1.6618176e-5 Z" id="path2" style="stroke-width:1.32302"></path>
</symbol><symbol viewBox="0 0 36 36" id="uicon-block">
    <path d="M31.42,9.09l-13-6a1,1,0,0,0-.84,0l-13,6A1,1,0,0,0,4,10V27a1,1,0,0,0,.58.91l13,6a1,1,0,0,0,.84,0l13-6A1,1,0,0,0,32,27V10A1,1,0,0,0,31.42,9.09ZM18,14.9,7.39,10,18,5.1,28.61,10ZM30,26.36,19,31.44V16.64l11-5.08Z" class="clr-i-solid clr-i-solid-path-1"></path>
</symbol><symbol viewBox="0 0 24 24" id="uicon-draggable"><g><path d="M10 19a2 2 0 1 1-2-2 2 2 0 0 1 2 2zm-2-9a2 2 0 1 0 2 2 2 2 0 0 0-2-2zm0-7a2 2 0 1 0 2 2 2 2 0 0 0-2-2zm8 14a2 2 0 1 0 2 2 2 2 0 0 0-2-2zm0-7a2 2 0 1 0 2 2 2 2 0 0 0-2-2zm0-7a2 2 0 1 0 2 2 2 2 0 0 0-2-2z" fill="#000000" data-original="#000000" class=""></path></g></symbol><symbol viewBox="0 0 24 24" id="uicon-duplicate"><path d="M21.155,3.272,18.871.913A3.02,3.02,0,0,0,16.715,0H12A5.009,5.009,0,0,0,7.1,4H7A5.006,5.006,0,0,0,2,9V19a5.006,5.006,0,0,0,5,5h6a5.006,5.006,0,0,0,5-5v-.1A5.009,5.009,0,0,0,22,14V5.36A2.988,2.988,0,0,0,21.155,3.272ZM13,22H7a3,3,0,0,1-3-3V9A3,3,0,0,1,7,6v8a5.006,5.006,0,0,0,5,5h4A3,3,0,0,1,13,22Zm4-5H12a3,3,0,0,1-3-3V5a3,3,0,0,1,3-3h4V4a2,2,0,0,0,2,2h2v8A3,3,0,0,1,17,17Z"></path></symbol><symbol viewBox="0 0 24 24" id="uicon-menu"><path d="M24,3c0,.55-.45,1-1,1H1c-.55,0-1-.45-1-1s.45-1,1-1H23c.55,0,1,.45,1,1ZM7,20H1c-.55,0-1,.45-1,1s.45,1,1,1H7c.55,0,1-.45,1-1s-.45-1-1-1ZM15,11H1c-.55,0-1,.45-1,1s.45,1,1,1H15c.55,0,1-.45,1-1s-.45-1-1-1Z"></path></symbol><symbol viewBox="0 0 24 24" id="uicon-search"><path d="M23.707,22.293l-5.969-5.969a10.016,10.016,0,1,0-1.414,1.414l5.969,5.969a1,1,0,0,0,1.414-1.414ZM10,18a8,8,0,1,1,8-8A8.009,8.009,0,0,1,10,18Z"></path></symbol><symbol viewBox="0 0 24 24" id="uicon-trash"><path d="M21,4H17.9A5.009,5.009,0,0,0,13,0H11A5.009,5.009,0,0,0,6.1,4H3A1,1,0,0,0,3,6H4V19a5.006,5.006,0,0,0,5,5h6a5.006,5.006,0,0,0,5-5V6h1a1,1,0,0,0,0-2ZM11,2h2a3.006,3.006,0,0,1,2.829,2H8.171A3.006,3.006,0,0,1,11,2Zm7,17a3,3,0,0,1-3,3H9a3,3,0,0,1-3-3V6H18Z"></path><path d="M10,18a1,1,0,0,0,1-1V11a1,1,0,0,0-2,0v6A1,1,0,0,0,10,18Z"></path><path d="M14,18a1,1,0,0,0,1-1V11a1,1,0,0,0-2,0v6A1,1,0,0,0,14,18Z"></path></symbol><symbol viewBox="0 0 24 24" id="uicon-unverified"><path d="M12,0A12,12,0,1,0,24,12,12.013,12.013,0,0,0,12,0Zm0,22A10,10,0,1,1,22,12,10.011,10.011,0,0,1,12,22Z"></path><path d="M12,5a1,1,0,0,0-1,1v8a1,1,0,0,0,2,0V6A1,1,0,0,0,12,5Z"></path><rect x="11" y="17" width="2" height="2" rx="1"></rect></symbol><symbol viewBox="0 0 24 24" id="uicon-verified"><path d="m11.349,24H0V3C0,1.346,1.346,0,3,0h12c1.654,0,3,1.346,3,3v5.059c-.329-.036-.662-.059-1-.059s-.671.022-1,.059V3c0-.552-.448-1-1-1H3c-.552,0-1,.448-1,1v19h7.518c.506.756,1.125,1.429,1.831,2Zm0-14h-7.349v2h5.518c.506-.756,1.125-1.429,1.831-2Zm-7.349,7h4c0-.688.084-1.356.231-2h-4.231v2Zm20,0c0,3.859-3.141,7-7,7s-7-3.141-7-7,3.141-7,7-7,7,3.141,7,7Zm-2,0c0-2.757-2.243-5-5-5s-5,2.243-5,5,2.243,5,5,5,5-2.243,5-5ZM14,5H4v2h10v-2Zm5.589,9.692l-3.228,3.175-1.63-1.58-1.393,1.436,1.845,1.788c.314.315.733.489,1.179.489s.865-.174,1.173-.482l3.456-3.399-1.402-1.426Z"></path></symbol></svg>